<svg xmlns="http://www.w3.org/2000/svg" version="1.1" xmlns:xlink="http://www.w3.org/1999/xlink" xmlns:svgjs="http://svgjs.com/svgjs" width="1585" height="300" transform="matrix(1,0,0,1,0,0)">
  <text font-family="DM Sans" font-size="260" text-anchor="left" x="310" charspacing="20px">
    <tspan dy="239.20000000000002" x="310">NowHere</tspan>
  </text>
  <path transform="matrix(0.7071067811865476,0.7071067811865475,-0.7071067811865475,0.7071067811865476,148,149.33)" d="M-18.941,18.652A6,6,-96.86045988037593,0,0,-26.244,21.825L-39.593,50.526A6,6,-59.73035411180769,0,0,-33.596,59.03L45.164,51.688A6,6,-23.409186007816384,0,0,46.469,40.01ZM-23.592,-12.251A6,6,-96.86045988039815,0,0,-28.867,-18.215L-60.288,-22.042A6,6,-59.73035411178057,0,0,-66.523,-13.71L-35.202,58.926A6,6,336.5908139921787,0,0,-23.692,56.559ZM4.361,-26.223A6,6,-96.86045988037526,0,0,8.404,-33.083L2.333,-64.148A6,6,-59.73035411179643,0,0,-7.517,-67.504L-66.92,-15.27A6,6,-23.409186007828307,0,0,-61.112,-5.055ZM26.287,-3.956A6,6,263.1395401195647,0,0,34.06,-2.231L61.73,-17.604A6,6,-59.73035411179479,0,0,61.877,-28.009L-6.157,-68.363A6,6,-23.409186007769872,0,0,-14.077,-59.683ZM11.886,23.778A6,6,-96.86045988036643,0,0,12.647,31.704L35.818,53.269A6,6,300.2696458881671,0,0,45.759,50.193L63.115,-26.981A6,6,-23.409186007800667,0,0,52.412,-31.831Z"/>
</svg>